<svg xmlns="http://www.w3.org/2000/svg" width="512" height="512" viewBox="0 0 512 512">
<g>
<path d="M 335.89 511.75 C335.95,511.89 375.60,512.00 424.00,512.00 L 114.13 512.00 L 113.81 509.75 C113.64,508.51 113.04,507.01 112.48,506.41 C110.91,504.73 99.34,503.03 91.17,503.28 C85.04,503.46 83.62,503.20 82.49,501.65 C81.75,500.64 81.36,499.23 81.63,498.53 C82.25,496.90 79.26,495.41 74.75,495.12 C73.79,495.05 73.00,494.31 73.00,493.46 C73.00,492.62 72.27,490.81 71.37,489.44 C70.12,487.53 68.90,486.96 66.12,486.99 L 65.87 486.99 C61.80,487.03 59.77,487.06 58.74,486.05 C57.70,485.04 57.66,482.99 57.56,478.86 C57.39,472.36 56.19,470.50 52.20,470.50 C50.72,470.50 49.46,469.94 49.38,469.25 C49.31,468.56 49.19,467.32 49.12,466.48 C49.06,465.65 47.47,464.24 45.59,463.34 C41.64,461.46 40.83,459.06 40.59,448.50 C40.51,444.65 40.07,440.73 39.62,439.78 C39.18,438.84 39.02,437.49 39.27,436.78 C39.52,436.08 39.34,434.74 38.86,433.81 C37.72,431.58 37.72,80.42 38.86,78.19 C39.34,77.26 39.52,75.92 39.27,75.22 C39.02,74.51 39.18,73.16 39.62,72.22 C40.07,71.27 40.49,67.80 40.56,64.50 C40.74,54.90 41.93,50.16 44.37,49.33 C45.54,48.93 46.83,48.69 47.23,48.80 C48.12,49.03 49.53,44.06 49.13,42.11 C48.92,41.07 49.60,40.87 51.81,41.31 C57.06,42.36 59.34,37.52 56.67,31.00 C55.53,28.21 58.49,25.98 64.05,25.43 C69.94,24.85 72.24,23.89 72.57,21.86 C73.34,17.08 74.49,15.73 77.11,16.55 C78.83,17.08 81.27,14.78 81.64,12.27 C82.10,9.14 84.13,8.50 93.55,8.50 C98.75,8.50 103.00,8.16 103.00,7.75 C103.00,7.34 103.90,7.00 105.00,7.00 C106.10,7.00 107.00,7.45 107.00,8.00 C107.00,9.52 110.59,9.19 111.96,7.55 C112.62,6.76 113.37,4.73 113.64,3.05 L 114.12 0.00 L 336.29 0.00 L 336.40 3.70 C336.49,7.19 336.74,7.46 340.50,8.27 C342.70,8.75 345.85,9.22 347.50,9.32 C349.76,9.46 350.51,9.99 350.52,11.50 C350.58,16.01 351.95,17.79 355.24,17.64 C358.05,17.52 358.48,17.86 359.08,20.75 C359.45,22.54 359.45,25.46 359.08,27.25 C358.53,29.93 357.95,30.51 355.73,30.53 C352.29,30.58 350.61,32.28 350.55,35.75 C350.50,38.42 350.33,38.50 344.86,38.50 C337.99,38.50 334.89,40.68 335.40,45.12 L 335.74 48.00 L 222.62 48.21 C210.08,48.23 198.86,48.25 188.82,48.27 C106.04,48.43 103.06,48.44 100.20,47.87 C99.74,47.78 99.29,47.68 98.52,47.56 C88.09,45.92 87.90,45.97 87.21,50.98 C86.81,53.86 85.21,55.19 82.81,54.62 C80.18,53.99 77.60,57.39 78.89,59.79 C79.46,60.86 79.71,61.95 79.45,62.22 C78.44,63.22 78.72,72.67 79.87,76.50 C81.66,82.47 82.03,437.00 80.25,437.00 C79.56,437.00 78.98,437.56 78.95,438.25 C78.50,448.78 79.00,455.15 80.38,456.52 C81.23,457.37 82.17,458.06 82.46,458.04 C86.14,457.79 86.71,458.14 86.46,460.45 C86.31,461.80 86.85,463.46 87.66,464.13 C89.22,465.43 94.00,466.01 94.00,464.91 C94.00,464.54 95.36,464.36 97.02,464.50 C98.67,464.64 100.21,464.47 100.42,464.13 C100.63,463.78 153.84,463.73 218.65,464.00 L 336.50 464.50 L 336.20 467.66 C335.83,471.56 336.51,472.00 343.73,472.47 C346.90,472.67 349.89,472.88 350.37,472.92 C350.84,472.96 351.02,474.12 350.76,475.50 C350.11,478.87 352.18,481.42 355.60,481.47 C357.97,481.49 358.53,482.02 359.08,484.75 C359.45,486.54 359.45,489.46 359.08,491.25 C358.48,494.14 358.05,494.48 355.24,494.36 C351.95,494.21 350.58,495.99 350.52,500.50 C350.50,502.26 349.81,502.50 344.82,502.53 C338.08,502.57 334.95,504.68 335.45,508.84 C335.63,510.30 335.82,511.61 335.89,511.75 ZM 343.00 387.00 C342.56,390.08 342.14,390.51 339.50,390.62 C334.91,390.80 333.73,390.13 335.52,388.34 C337.08,386.78 336.58,384.52 334.91,385.56 C334.38,385.88 334.07,385.55 334.23,384.82 C334.40,383.99 333.71,383.61 332.37,383.79 C330.27,384.08 328.46,381.68 329.51,379.98 C329.79,379.53 329.49,377.98 328.84,376.54 C327.87,374.42 327.12,374.02 324.81,374.38 C321.55,374.90 320.06,372.96 320.65,369.00 C320.85,367.62 321.08,365.83 321.15,365.00 C321.34,362.72 323.03,361.00 325.09,361.00 C326.81,361.00 329.19,358.06 328.90,356.29 C328.51,353.96 329.25,353.00 331.43,353.00 C333.94,353.00 338.41,348.48 337.45,346.91 C337.16,346.44 338.07,345.77 339.47,345.42 C342.24,344.72 346.30,340.30 345.45,338.91 C345.16,338.44 346.07,337.77 347.47,337.42 C350.24,336.72 354.30,332.30 353.45,330.91 C353.16,330.44 354.07,329.77 355.47,329.42 C358.24,328.72 362.30,324.30 361.45,322.91 C361.16,322.44 362.07,321.77 363.47,321.42 C366.24,320.72 370.30,316.30 369.45,314.91 C369.16,314.44 370.07,313.77 371.47,313.42 C374.24,312.72 378.30,308.30 377.45,306.91 C377.16,306.44 378.07,305.77 379.47,305.42 C382.24,304.72 386.30,300.30 385.45,298.91 C385.16,298.44 386.07,297.77 387.47,297.42 C390.24,296.72 394.30,292.30 393.45,290.91 C393.16,290.44 394.07,289.77 395.47,289.42 C399.30,288.46 402.14,284.41 400.90,281.68 L 399.91 279.50 L 210.00 280.06 L 210.00 277.64 C210.00,275.88 209.08,274.79 206.60,273.61 C204.73,272.73 202.28,272.00 201.16,272.00 C200.04,272.00 198.83,271.54 198.48,270.97 C198.13,270.41 197.32,270.01 196.67,270.09 C196.58,270.10 196.49,270.12 196.40,270.13 C195.34,270.26 194.60,270.35 194.08,270.06 C192.86,269.36 192.86,266.53 192.86,257.05 C192.86,256.71 192.86,256.36 192.86,256.00 C192.86,243.19 192.98,242.01 194.29,241.88 C198.09,241.52 203.00,239.91 203.00,239.02 C203.00,238.59 204.34,237.98 205.97,237.66 C208.08,237.23 209.13,236.32 209.59,234.50 L 210.23 231.94 L 305.12 232.22 C357.30,232.37 400.06,232.27 400.13,232.00 C401.31,227.35 399.09,222.37 396.31,223.43 C395.59,223.71 395.00,223.47 395.00,222.91 C395.00,222.34 394.55,222.16 394.00,222.50 C393.07,223.07 392.55,221.67 392.92,219.62 C393.20,218.11 389.68,214.91 388.31,215.43 C387.59,215.71 387.00,215.47 387.00,214.91 C387.00,214.34 386.55,214.16 386.00,214.50 C385.07,215.07 384.55,213.67 384.92,211.62 C385.20,210.11 381.68,206.91 380.31,207.43 C379.59,207.71 379.00,207.47 379.00,206.91 C379.00,206.34 378.55,206.16 378.00,206.50 C377.07,207.07 376.55,205.67 376.92,203.62 C377.20,202.11 373.68,198.91 372.31,199.43 C371.59,199.71 371.00,199.47 371.00,198.91 C371.00,198.34 370.55,198.16 370.00,198.50 C369.07,199.07 368.55,197.67 368.92,195.62 C369.20,194.11 365.68,190.91 364.31,191.43 C363.59,191.71 363.00,191.47 363.00,190.91 C363.00,190.34 362.55,190.16 362.00,190.50 C361.07,191.07 360.55,189.67 360.92,187.62 C361.20,186.11 357.68,182.91 356.31,183.43 C355.59,183.71 355.00,183.47 355.00,182.91 C355.00,182.34 354.55,182.16 354.00,182.50 C353.07,183.07 352.55,181.67 352.92,179.62 C353.20,178.11 349.68,174.91 348.31,175.43 C347.59,175.71 347.00,175.47 347.00,174.91 C347.00,174.34 346.55,174.16 346.00,174.50 C345.07,175.07 344.55,173.67 344.92,171.62 C345.20,170.11 341.68,166.91 340.31,167.43 C339.59,167.71 339.00,167.47 339.00,166.91 C339.00,166.34 338.55,166.16 338.00,166.50 C337.06,167.08 336.61,165.84 336.89,163.41 C337.04,162.12 333.63,158.85 332.38,159.08 C329.88,159.53 328.89,158.81 329.18,156.75 C329.56,154.07 327.24,151.00 324.84,151.00 C323.04,151.00 321.74,149.54 321.28,147.00 C319.74,138.46 320.39,136.38 324.28,137.35 C327.19,138.08 329.03,136.36 329.45,132.51 C329.78,129.54 329.59,129.73 333.50,128.41 C335.49,127.74 336.40,126.83 336.21,125.70 C336.04,124.77 336.49,123.99 337.21,123.98 C338.20,123.97 338.18,123.77 337.12,123.09 C336.10,122.45 336.59,122.03 338.94,121.51 C340.70,121.13 342.29,120.97 342.47,121.15 C342.65,121.34 343.05,123.30 343.36,125.50 C343.67,127.70 343.94,129.61 343.96,129.75 C344.06,130.39 348.94,129.91 349.37,129.22 C349.63,128.79 351.66,128.61 353.87,128.82 C357.42,129.16 357.96,129.55 358.56,132.29 C359.34,135.81 360.99,137.84 362.64,137.29 C364.22,136.76 367.22,139.99 366.62,141.56 C366.00,143.16 367.65,144.52 371.23,145.38 C373.11,145.83 374.18,146.88 374.65,148.76 C375.46,151.98 377.08,153.81 378.64,153.29 C380.10,152.80 383.00,155.70 383.00,157.64 C383.00,159.58 385.19,161.77 386.64,161.29 C388.10,160.80 391.00,163.70 391.00,165.64 C391.00,167.58 393.19,169.77 394.64,169.29 C396.10,168.80 399.00,171.70 399.00,173.64 C399.00,175.58 401.19,177.77 402.64,177.29 C404.10,176.80 407.00,179.70 407.00,181.64 C407.00,183.58 409.19,185.77 410.64,185.29 C412.10,184.80 415.00,187.70 415.00,189.64 C415.00,191.58 417.19,193.77 418.64,193.29 C420.10,192.80 423.00,195.70 423.00,197.64 C423.00,199.58 425.19,201.77 426.64,201.29 C428.10,200.80 431.00,203.70 431.00,205.64 C431.00,207.58 433.19,209.77 434.64,209.29 C436.10,208.80 439.00,211.70 439.00,213.64 C439.00,215.58 441.19,217.77 442.64,217.29 C444.10,216.80 447.00,219.70 447.00,221.64 C447.00,223.58 449.19,225.77 450.64,225.29 C452.10,224.80 455.00,227.70 455.00,229.64 C455.00,230.47 455.57,231.71 456.26,232.40 C456.95,233.09 458.02,233.49 458.64,233.29 C460.22,232.76 463.00,235.77 463.00,237.99 C463.00,239.22 464.17,240.23 466.45,240.98 C470.07,242.18 471.24,244.17 470.98,248.75 C470.79,252.23 470.77,259.31 470.94,262.25 C471.01,263.49 470.87,265.40 470.61,266.50 C470.36,267.60 470.12,268.80 470.08,269.17 C470.03,269.54 468.42,270.36 466.50,271.00 C464.18,271.77 463.00,272.78 463.00,274.01 C463.00,276.23 460.22,279.24 458.64,278.71 C458.02,278.51 456.95,278.91 456.26,279.60 C455.57,280.29 455.00,281.53 455.00,282.36 C455.00,284.30 452.10,287.20 450.64,286.71 C449.19,286.23 447.00,288.42 447.00,290.36 C447.00,292.30 444.10,295.20 442.64,294.71 C441.19,294.23 439.00,296.42 439.00,298.36 C439.00,300.30 436.10,303.20 434.64,302.71 C433.19,302.23 431.00,304.42 431.00,306.36 C431.00,308.30 428.10,311.20 426.64,310.71 C425.19,310.23 423.00,312.42 423.00,314.36 C423.00,316.30 420.10,319.20 418.64,318.71 C417.19,318.23 415.00,320.42 415.00,322.36 C415.00,324.30 412.10,327.20 410.64,326.71 C408.98,326.16 407.02,328.52 406.78,331.34 C406.63,333.25 405.74,334.06 402.91,334.91 C400.04,335.77 399.12,336.63 398.67,338.91 C398.23,341.11 397.25,342.09 394.66,342.95 C392.08,343.80 391.09,344.79 390.66,346.95 C390.23,349.11 389.24,350.10 386.66,350.95 C384.08,351.80 383.09,352.79 382.66,354.95 C382.22,357.13 381.24,358.10 378.54,358.99 C376.18,359.76 375.00,360.77 375.00,362.01 C375.00,364.23 372.22,367.24 370.64,366.71 C368.98,366.16 367.02,368.52 366.78,371.34 C366.63,373.25 365.74,374.06 362.90,374.91 C359.80,375.84 359.12,376.56 358.56,379.51 C357.94,382.81 357.68,383.01 353.70,383.13 C346.55,383.36 344.41,383.32 343.63,384.34 C343.22,384.87 343.19,385.69 343.00,387.00 Z" fill="rgb(0,0,0)"/>
<path d="M 343.00 387.00 C343.19,385.69 343.22,384.87 343.63,384.34 C344.41,383.32 346.55,383.36 353.70,383.13 C357.68,383.01 357.94,382.81 358.56,379.51 C359.12,376.56 359.80,375.84 362.90,374.91 C365.74,374.06 366.63,373.25 366.78,371.34 C367.02,368.52 368.98,366.16 370.64,366.71 C372.22,367.24 375.00,364.23 375.00,362.01 C375.00,360.77 376.18,359.76 378.54,358.99 C381.24,358.10 382.22,357.13 382.66,354.95 C383.09,352.79 384.08,351.80 386.66,350.95 C389.24,350.10 390.23,349.11 390.66,346.95 C391.09,344.79 392.08,343.80 394.66,342.95 C397.25,342.09 398.23,341.11 398.67,338.91 C399.12,336.63 400.04,335.77 402.91,334.91 C405.74,334.06 406.63,333.25 406.78,331.34 C407.02,328.52 408.98,326.16 410.64,326.71 C412.10,327.20 415.00,324.30 415.00,322.36 C415.00,320.42 417.19,318.23 418.64,318.71 C420.10,319.20 423.00,316.30 423.00,314.36 C423.00,312.42 425.19,310.23 426.64,310.71 C428.10,311.20 431.00,308.30 431.00,306.36 C431.00,304.42 433.19,302.23 434.64,302.71 C436.10,303.20 439.00,300.30 439.00,298.36 C439.00,296.42 441.19,294.23 442.64,294.71 C444.10,295.20 447.00,292.30 447.00,290.36 C447.00,288.42 449.19,286.23 450.64,286.71 C452.10,287.20 455.00,284.30 455.00,282.36 C455.00,281.53 455.57,280.29 456.26,279.60 C456.95,278.91 458.02,278.51 458.64,278.71 C460.22,279.24 463.00,276.23 463.00,274.01 C463.00,272.78 464.18,271.77 466.50,271.00 C468.42,270.36 470.03,269.54 470.08,269.17 C470.12,268.80 470.36,267.60 470.61,266.50 C470.87,265.40 471.01,263.49 470.94,262.25 C470.77,259.31 470.79,252.23 470.98,248.75 C471.24,244.17 470.07,242.18 466.45,240.98 C464.17,240.23 463.00,239.22 463.00,237.99 C463.00,235.77 460.22,232.76 458.64,233.29 C458.02,233.49 456.95,233.09 456.26,232.40 C455.57,231.71 455.00,230.47 455.00,229.64 C455.00,227.70 452.10,224.80 450.64,225.29 C449.19,225.77 447.00,223.58 447.00,221.64 C447.00,219.70 444.10,216.80 442.64,217.29 C441.19,217.77 439.00,215.58 439.00,213.64 C439.00,211.70 436.10,208.80 434.64,209.29 C433.19,209.77 431.00,207.58 431.00,205.64 C431.00,203.70 428.10,200.80 426.64,201.29 C425.19,201.77 423.00,199.58 423.00,197.64 C423.00,195.70 420.10,192.80 418.64,193.29 C417.19,193.77 415.00,191.58 415.00,189.64 C415.00,187.70 412.10,184.80 410.64,185.29 C409.19,185.77 407.00,183.58 407.00,181.64 C407.00,179.70 404.10,176.80 402.64,177.29 C401.19,177.77 399.00,175.58 399.00,173.64 C399.00,171.70 396.10,168.80 394.64,169.29 C393.19,169.77 391.00,167.58 391.00,165.64 C391.00,163.70 388.10,160.80 386.64,161.29 C385.19,161.77 383.00,159.58 383.00,157.64 C383.00,155.70 380.10,152.80 378.64,153.29 C377.08,153.81 375.46,151.98 374.65,148.76 C374.18,146.88 373.11,145.83 371.23,145.38 C367.65,144.52 366.00,143.16 366.62,141.56 C367.22,139.99 364.22,136.76 362.64,137.29 C360.99,137.84 359.34,135.81 358.56,132.29 C357.96,129.55 357.42,129.16 353.87,128.82 C351.66,128.61 349.63,128.79 349.37,129.22 C348.94,129.91 344.06,130.39 343.96,129.75 C343.94,129.61 343.67,127.70 343.36,125.50 C343.05,123.30 342.65,121.34 342.47,121.15 C342.29,120.97 340.70,121.13 338.94,121.51 C336.59,122.03 336.10,122.45 337.12,123.09 C338.18,123.77 338.20,123.97 337.21,123.98 C336.49,123.99 336.04,124.77 336.21,125.70 C336.40,126.83 335.49,127.74 333.50,128.41 C329.59,129.73 329.78,129.54 329.45,132.51 C329.03,136.36 327.19,138.08 324.28,137.35 C320.39,136.38 319.74,138.46 321.28,147.00 C321.74,149.54 323.04,151.00 324.84,151.00 C327.24,151.00 329.56,154.07 329.18,156.75 C328.89,158.81 329.88,159.53 332.38,159.08 C333.63,158.85 337.04,162.12 336.89,163.41 C336.61,165.84 337.06,167.08 338.00,166.50 C338.55,166.16 339.00,166.34 339.00,166.91 C339.00,167.47 339.59,167.71 340.31,167.43 C341.68,166.91 345.20,170.11 344.92,171.62 C344.55,173.67 345.07,175.07 346.00,174.50 C346.55,174.16 347.00,174.34 347.00,174.91 C347.00,175.47 347.59,175.71 348.31,175.43 C349.68,174.91 353.20,178.11 352.92,179.62 C352.55,181.67 353.07,183.07 354.00,182.50 C354.55,182.16 355.00,182.34 355.00,182.91 C355.00,183.47 355.59,183.71 356.31,183.43 C357.68,182.91 361.20,186.11 360.92,187.62 C360.55,189.67 361.07,191.07 362.00,190.50 C362.55,190.16 363.00,190.34 363.00,190.91 C363.00,191.47 363.59,191.71 364.31,191.43 C365.68,190.91 369.20,194.11 368.92,195.62 C368.55,197.67 369.07,199.07 370.00,198.50 C370.55,198.16 371.00,198.34 371.00,198.91 C371.00,199.47 371.59,199.71 372.31,199.43 C373.68,198.91 377.20,202.11 376.92,203.62 C376.55,205.67 377.07,207.07 378.00,206.50 C378.55,206.16 379.00,206.34 379.00,206.91 C379.00,207.47 379.59,207.71 380.31,207.43 C381.68,206.91 385.20,210.11 384.92,211.62 C384.55,213.67 385.07,215.07 386.00,214.50 C386.55,214.16 387.00,214.34 387.00,214.91 C387.00,215.47 387.59,215.71 388.31,215.43 C389.68,214.91 393.20,218.11 392.92,219.62 C392.55,221.67 393.07,223.07 394.00,222.50 C394.55,222.16 395.00,222.34 395.00,222.91 C395.00,223.47 395.59,223.71 396.31,223.43 C399.09,222.37 401.31,227.35 400.13,232.00 C400.06,232.27 357.30,232.37 305.12,232.22 L 304.09 232.22 L 397.40 231.96 L 358.30 192.73 C325.28,159.61 319.02,152.88 318.10,149.50 C313.58,132.89 324.55,117.95 341.22,118.02 C342.57,118.03 343.74,118.03 344.90,118.16 C352.51,119.06 359.42,126.01 414.78,181.30 C470.77,237.22 477.95,244.37 478.86,252.25 C479.00,253.41 479.00,254.58 479.00,255.93 L 479.00 256.07 C479.00,257.42 479.00,258.59 478.86,259.75 C477.95,267.63 470.77,274.78 414.78,330.70 C369.49,375.94 354.44,390.38 351.00,391.93 C345.29,394.50 336.88,394.59 331.50,392.13 C329.30,391.12 325.62,388.26 323.33,385.76 C316.81,378.66 315.24,369.52 319.06,361.00 C320.58,357.63 330.67,346.90 359.29,318.25 L 397.49 280.00 L 300.50 279.98 C279.42,279.97 262.91,279.97 249.95,279.94 L 399.91 279.50 L 400.90 281.68 C402.14,284.41 399.30,288.46 395.47,289.42 C394.07,289.77 393.16,290.44 393.45,290.91 C394.30,292.30 390.24,296.72 387.47,297.42 C386.07,297.77 385.16,298.44 385.45,298.91 C386.30,300.30 382.24,304.72 379.47,305.42 C378.07,305.77 377.16,306.44 377.45,306.91 C378.30,308.30 374.24,312.72 371.47,313.42 C370.07,313.77 369.16,314.44 369.45,314.91 C370.30,316.30 366.24,320.72 363.47,321.42 C362.07,321.77 361.16,322.44 361.45,322.91 C362.30,324.30 358.24,328.72 355.47,329.42 C354.07,329.77 353.16,330.44 353.45,330.91 C354.30,332.30 350.24,336.72 347.47,337.42 C346.07,337.77 345.16,338.44 345.45,338.91 C346.30,340.30 342.24,344.72 339.47,345.42 C338.07,345.77 337.16,346.44 337.45,346.91 C338.41,348.48 333.94,353.00 331.43,353.00 C329.25,353.00 328.51,353.96 328.90,356.29 C329.19,358.06 326.81,361.00 325.09,361.00 C323.03,361.00 321.34,362.72 321.15,365.00 C321.08,365.83 320.85,367.62 320.65,369.00 C320.06,372.96 321.55,374.90 324.81,374.38 C327.12,374.02 327.87,374.42 328.84,376.54 C329.49,377.98 329.79,379.53 329.51,379.98 C328.46,381.68 330.27,384.08 332.37,383.79 C333.71,383.61 334.40,383.99 334.23,384.82 C334.07,385.55 334.38,385.88 334.91,385.56 C336.58,384.52 337.08,386.78 335.52,388.34 C333.73,390.13 334.91,390.80 339.50,390.62 C342.14,390.51 342.56,390.08 343.00,387.00 ZM 0.00 0.00 L 114.12 0.00 L 113.64 3.05 C113.37,4.73 112.62,6.76 111.96,7.55 C110.59,9.19 107.00,9.52 107.00,8.00 C107.00,7.45 106.10,7.00 105.00,7.00 C103.90,7.00 103.00,7.34 103.00,7.75 C103.00,8.16 98.75,8.50 93.55,8.50 C84.13,8.50 82.10,9.14 81.64,12.27 C81.27,14.78 78.83,17.08 77.11,16.55 C74.49,15.73 73.34,17.08 72.57,21.86 C72.24,23.89 69.94,24.85 64.05,25.43 C58.49,25.98 55.53,28.21 56.67,31.00 C59.34,37.52 57.06,42.36 51.81,41.31 C49.60,40.87 48.92,41.07 49.13,42.11 C49.53,44.06 48.12,49.03 47.23,48.80 C46.83,48.69 45.54,48.93 44.37,49.33 C41.93,50.16 40.74,54.90 40.56,64.50 C40.49,67.80 40.07,71.27 39.62,72.22 C39.18,73.16 39.02,74.51 39.27,75.22 C39.52,75.92 39.34,77.26 38.86,78.19 C37.72,80.42 37.72,431.58 38.86,433.81 C39.34,434.74 39.52,436.08 39.27,436.78 C39.02,437.49 39.18,438.84 39.62,439.78 C40.07,440.73 40.51,444.65 40.59,448.50 C40.83,459.06 41.64,461.46 45.59,463.34 C47.47,464.24 49.06,465.65 49.12,466.48 C49.19,467.32 49.31,468.56 49.38,469.25 C49.46,469.94 50.72,470.50 52.20,470.50 C56.19,470.50 57.39,472.36 57.56,478.86 C57.66,482.99 57.70,485.04 58.74,486.05 C59.77,487.06 61.80,487.03 65.87,486.99 L 66.12 486.99 C68.90,486.96 70.12,487.53 71.37,489.44 C72.27,490.81 73.00,492.62 73.00,493.46 C73.00,494.31 73.79,495.05 74.75,495.12 C79.26,495.41 82.25,496.90 81.63,498.53 C81.36,499.23 81.75,500.64 82.49,501.65 C83.62,503.20 85.04,503.46 91.17,503.28 C99.34,503.03 110.91,504.73 112.48,506.41 C113.04,507.01 113.64,508.51 113.81,509.75 L 114.13 512.00 L 0.00 512.00 L 51.75 511.92 C97.42,511.85 102.78,511.68 97.37,510.51 C67.24,503.96 42.21,479.60 35.29,450.10 C33.61,442.95 33.50,431.52 33.50,256.00 C33.50,80.48 33.61,69.05 35.29,61.90 C42.60,30.74 69.89,5.63 101.48,0.99 C104.24,0.58 82.54,0.19 53.25,0.12 ZM 335.69 47.55 L 335.40 45.12 C334.89,40.68 337.99,38.50 344.86,38.50 C350.33,38.50 350.50,38.42 350.55,35.75 C350.61,32.28 352.29,30.58 355.73,30.53 C357.95,30.51 358.53,29.93 359.08,27.25 C359.45,25.46 359.45,22.54 359.08,20.75 C358.48,17.86 358.05,17.52 355.24,17.64 C351.95,17.79 350.58,16.01 350.52,11.50 C350.51,9.99 349.76,9.46 347.50,9.32 C345.85,9.22 342.70,8.75 340.50,8.27 C336.74,7.46 336.49,7.19 336.40,3.70 L 336.29 0.00 L 512.00 0.00 L 427.75 0.10 C367.95,0.18 344.63,0.51 347.39,1.24 C353.32,2.81 360.43,10.24 362.40,16.93 C364.37,23.63 364.38,24.37 362.46,30.83 C360.73,36.64 356.70,41.78 351.18,45.21 L 347.50 47.50 ZM 335.89 511.75 C335.82,511.61 335.63,510.30 335.45,508.84 C334.95,504.68 338.08,502.57 344.82,502.53 C349.81,502.50 350.50,502.26 350.52,500.50 C350.58,495.99 351.95,494.21 355.24,494.36 C358.05,494.48 358.48,494.14 359.08,491.25 C359.45,489.46 359.45,486.54 359.08,484.75 C358.53,482.02 357.97,481.49 355.60,481.47 C352.18,481.42 350.11,478.87 350.76,475.50 C351.02,474.12 350.84,472.96 350.37,472.92 C349.89,472.88 346.90,472.67 343.73,472.47 C336.51,472.00 335.83,471.56 336.20,467.66 L 336.45 464.99 C349.43,465.59 352.57,466.68 354.68,468.80 C355.56,469.69 356.26,470.76 357.42,472.04 C360.58,475.54 364.00,483.83 364.00,488.00 C364.00,488.90 363.30,492.00 362.44,494.88 C360.60,501.09 355.59,507.00 349.71,509.91 L 345.77 511.86 C339.48,511.83 335.90,511.79 335.89,511.75 ZM 210.00 232.86 L 209.59 234.50 C209.13,236.32 208.08,237.23 205.97,237.66 C204.34,237.98 203.00,238.59 203.00,239.02 C203.00,239.91 198.09,241.52 194.29,241.88 C192.98,242.01 192.86,243.19 192.86,256.00 C192.86,256.36 192.86,256.71 192.86,257.05 C192.86,266.53 192.86,269.36 194.08,270.06 C194.60,270.35 195.34,270.26 196.40,270.13 C196.49,270.12 196.58,270.10 196.67,270.09 C197.32,270.01 198.13,270.41 198.48,270.97 C198.83,271.54 200.04,272.00 201.16,272.00 C202.28,272.00 204.73,272.73 206.60,273.61 C209.08,274.79 210.00,275.88 210.00,277.64 L 210.00 279.54 C202.20,279.24 200.84,278.75 199.00,277.92 C189.44,273.59 184.57,266.19 184.57,256.00 C184.57,246.30 189.01,239.15 198.00,234.36 C199.43,233.60 201.13,233.15 210.00,232.86 ZM 81.34 223.49 C81.15,147.18 80.64,79.09 79.87,76.50 C78.72,72.67 78.44,63.22 79.45,62.22 C79.71,61.95 79.46,60.86 78.89,59.79 C77.60,57.39 80.18,53.99 82.81,54.62 C85.21,55.19 86.81,53.86 87.21,50.98 C87.90,45.97 88.09,45.92 98.52,47.56 C99.29,47.68 99.74,47.78 100.20,47.87 C102.33,48.29 104.52,48.40 139.50,48.36 L 105.50 48.50 L 99.80 51.30 C92.97,54.65 85.91,62.14 83.34,68.76 C81.69,73.01 81.51,80.32 81.34,223.49 ZM 305.61 464.37 L 218.65 464.00 C153.84,463.73 100.63,463.78 100.42,464.13 C100.21,464.47 98.67,464.64 97.02,464.50 C95.36,464.36 94.00,464.54 94.00,464.91 C94.00,466.01 89.22,465.43 87.66,464.13 C86.85,463.46 86.31,461.80 86.46,460.45 C86.71,458.14 86.14,457.79 82.46,458.04 C82.17,458.06 81.23,457.37 80.38,456.52 C79.00,455.15 78.50,448.78 78.95,438.25 C78.98,437.56 79.56,437.00 80.25,437.00 C80.73,437.00 81.06,411.07 81.24,373.11 C81.31,434.20 81.73,437.47 83.06,441.65 C85.56,449.53 92.02,456.88 99.80,460.70 L 105.50 463.50 L 226.00 464.00 C261.76,464.15 287.28,464.21 305.61,464.37 ZM 416.48 512.00 L 428.75 512.00 L 512.00 512.00 L 424.00 512.00 C421.47,512.00 418.96,512.00 416.48,512.00 Z" fill="rgb(1,1,1)"/>
<path d="M 101.48 0.99 C98.84,1.38 96.24,1.91 93.67,2.57 L 100.31 0.75 C101.60,0.83 102.03,0.91 101.48,0.99 ZM 60.50 20.40 C48.20,31.28 39.07,45.78 35.29,61.90 C39.09,45.72 48.07,31.29 60.50,20.40 ZM 361.26 14.03 C359.23,9.88 355.61,5.81 351.85,3.34 C355.83,5.86 359.24,9.74 361.26,14.03 ZM 348.90 1.75 C348.39,1.54 347.89,1.37 347.39,1.24 C347.10,1.16 347.10,1.09 347.40,1.02 Z" fill="rgb(178,178,178)"/>
<path d="M 0.00 256.00 L 0.00 0.00 L 51.25 0.07 L 102.50 0.15 L 93.66 2.57 C64.56,10.56 41.95,33.53 35.29,61.90 C33.61,69.05 33.50,80.48 33.50,256.00 C33.50,431.52 33.61,442.95 35.29,450.10 C42.21,479.60 67.24,503.96 97.37,510.51 C102.78,511.68 97.42,511.85 51.75,511.92 L 0.00 512.00 L 0.00 256.00 ZM 349.71 509.91 C355.59,507.00 360.60,501.09 362.44,494.88 C363.30,492.00 364.00,488.90 364.00,488.00 C364.00,483.83 360.58,475.54 357.42,472.04 C350.03,463.87 361.37,464.56 226.00,464.00 L 105.50 463.50 L 99.80 460.70 C92.02,456.88 85.56,449.53 83.06,441.65 C81.15,435.64 81.11,431.51 81.30,254.50 C81.49,81.32 81.58,73.30 83.34,68.76 C85.91,62.14 92.97,54.65 99.80,51.30 L 105.50 48.50 L 226.50 48.00 L 347.50 47.50 L 351.18 45.21 C356.70,41.78 360.73,36.64 362.46,30.83 C364.37,24.39 364.37,23.61 362.44,17.12 C360.59,10.88 355.59,4.99 349.72,2.15 L 345.50 0.10 L 428.75 0.05 L 512.00 0.00 L 512.00 256.00 L 512.00 512.00 L 428.75 512.00 L 345.50 512.00 L 349.71 509.91 ZM 351.00 391.93 C354.44,390.38 369.49,375.94 414.78,330.70 C479.15,266.41 479.00,266.58 479.00,256.00 C479.00,245.42 479.15,245.59 414.78,181.30 C351.04,117.64 351.53,118.06 341.22,118.02 C324.55,117.95 313.58,132.89 318.10,149.50 C319.02,152.88 325.28,159.61 358.30,192.73 L 397.40 231.96 L 299.45 232.23 C206.09,232.49 201.34,232.59 198.00,234.36 C189.01,239.15 184.57,246.30 184.57,256.00 C184.57,266.19 189.44,273.59 199.00,277.92 C203.43,279.92 205.08,279.96 300.50,279.98 L 397.49 280.00 L 359.29 318.25 C330.67,346.90 320.58,357.63 319.06,361.00 C315.24,369.52 316.81,378.66 323.33,385.76 C325.62,388.26 329.30,391.12 331.50,392.13 C336.88,394.59 345.29,394.50 351.00,391.93 Z" fill="rgb(254,254,254)"/>
</g>
</svg>