<svg xmlns="http://www.w3.org/2000/svg" width="1254" height="836" viewBox="0 0 1254 836">
<g>
<path d="M 260.37 470.45 C255.79,468.13 254.41,463.60 252.50,444.63 C250.61,425.72 250.49,426.18 257.50,424.19 C265.81,421.83 271.93,414.02 273.41,403.87 C275.33,390.70 265.44,377.91 252.11,376.33 C245.81,375.58 244.92,374.09 245.16,364.68 C245.25,361.22 245.50,359.93 245.72,361.75 C246.11,364.87 246.31,365.00 250.56,365.00 C253.00,365.00 255.00,364.53 255.00,363.95 C255.00,361.71 259.96,358.27 262.50,358.75 C264.79,359.19 265.00,358.94 265.00,355.62 C265.00,353.07 265.44,352.00 266.50,352.00 C267.53,352.00 268.00,350.98 267.99,348.75 C267.98,346.31 268.77,344.85 271.14,342.90 C273.27,341.16 274.04,339.87 273.49,338.98 C273.04,338.25 272.63,336.36 272.58,334.78 C272.52,332.47 272.86,331.99 274.31,332.37 C275.77,332.75 275.89,332.57 274.94,331.43 C274.02,330.32 274.14,329.88 275.47,329.37 C276.64,328.93 276.81,328.50 276.01,328.01 C275.37,327.61 277.70,326.98 281.18,326.59 C284.65,326.20 289.08,325.71 291.00,325.48 C292.92,325.26 307.77,323.70 324.00,322.01 C340.23,320.32 361.15,318.05 370.50,316.96 C379.85,315.87 390.42,314.87 394.00,314.74 L 400.50 314.50 L 400.82 318.98 C401.19,324.21 402.38,326.00 405.50,326.00 C408.96,326.00 409.88,324.09 409.04,318.66 C408.36,314.31 408.50,313.74 410.40,313.01 C412.90,312.04 464.65,306.59 470.75,306.65 C474.99,306.69 478.16,308.55 480.07,312.14 C481.09,314.04 485.30,347.27 484.82,349.59 C484.64,350.43 481.80,352.20 478.50,353.53 C470.86,356.61 465.67,362.01 463.57,369.06 C461.58,375.78 461.60,378.46 463.67,384.54 C466.89,393.99 476.56,401.00 486.39,401.00 C489.24,401.00 490.24,401.49 490.95,403.25 C491.44,404.49 492.63,413.27 493.58,422.76 C494.88,435.77 495.03,440.63 494.20,442.46 C491.86,447.59 489.73,448.10 456.21,451.54 C438.77,453.33 424.16,454.59 423.75,454.34 C423.34,454.09 423.00,452.16 423.00,450.06 C423.00,445.72 421.06,443.53 418.05,444.48 C416.35,445.02 416.00,445.97 416.00,450.10 C416.00,453.18 415.53,455.22 414.75,455.48 C412.79,456.14 392.97,458.32 310.50,466.94 C289.05,469.18 269.70,471.24 267.50,471.52 C264.92,471.86 262.39,471.47 260.37,470.45 ZM 384.02 435.24 C386.37,432.26 386.54,428.94 384.54,425.07 C382.87,421.85 381.21,421.00 376.58,421.00 C373.73,421.00 372.47,419.99 366.56,412.93 L 359.80 404.85 L 361.86 400.68 C362.99,398.38 364.15,395.33 364.44,393.89 C364.93,391.48 365.48,391.23 371.58,390.60 C377.78,389.97 378.36,390.08 380.73,392.46 C387.69,399.41 399.11,390.91 394.58,382.16 C391.56,376.31 383.08,375.90 379.46,381.43 C377.86,383.86 376.87,384.20 367.97,385.35 C364.61,385.78 364.36,385.60 362.64,381.44 C361.65,379.05 359.00,375.43 356.76,373.40 L 352.68 369.72 L 355.58 361.36 C357.67,355.33 358.95,353.00 360.16,353.00 C361.09,353.00 363.23,351.83 364.92,350.41 C367.40,348.32 368.00,347.06 368.00,343.87 C368.00,335.19 358.71,331.65 352.75,338.07 C349.67,341.39 349.19,345.40 351.50,348.69 C352.86,350.63 352.71,351.59 349.86,359.41 L 346.73 368.00 L 341.93 368.00 C339.29,368.00 335.88,368.47 334.35,369.06 C331.74,370.05 331.28,369.77 326.54,364.36 C321.99,359.18 321.50,358.15 321.49,353.82 C321.47,347.51 318.11,343.80 312.41,343.80 C307.60,343.80 303.00,348.34 303.00,353.09 C303.00,357.61 307.72,361.98 312.67,362.06 C316.02,362.10 317.11,362.80 321.40,367.62 L 326.30 373.12 L 324.16 376.93 C322.99,379.02 321.66,382.48 321.22,384.61 C320.42,388.49 320.39,388.50 314.33,389.32 C308.63,390.09 308.08,389.98 305.48,387.57 C301.93,384.28 298.00,384.29 294.08,387.59 C289.67,391.30 289.72,396.74 294.19,400.51 C298.36,404.01 303.33,403.46 307.05,399.07 C309.12,396.62 310.63,395.94 315.20,395.41 L 320.82 394.75 L 322.53 398.12 C323.47,399.98 325.33,402.96 326.67,404.76 L 329.11 408.01 L 326.30 413.00 C324.06,417.01 322.98,418.00 320.88,418.00 C319.45,418.00 317.08,418.93 315.63,420.07 C312.23,422.75 311.88,429.88 315.00,433.00 C318.01,436.01 324.38,435.71 327.68,432.41 C330.00,430.09 330.21,429.28 329.71,424.48 C329.23,419.80 329.51,418.58 332.00,414.66 L 334.85 410.17 L 339.00 411.23 C342.28,412.06 344.40,411.94 349.06,410.64 C352.31,409.74 355.13,409.00 355.33,409.00 C355.53,409.00 358.72,412.59 362.43,416.99 C368.36,424.02 369.09,425.32 368.52,427.93 C366.63,436.54 378.57,442.17 384.02,435.24 ZM 420.07 437.96 C421.70,437.09 421.91,436.24 421.39,432.71 C420.84,429.05 418.85,425.97 417.06,426.02 C414.77,426.08 413.63,428.27 413.85,432.14 C414.22,438.42 416.04,440.12 420.07,437.96 ZM 418.45 419.66 C419.97,418.55 420.16,417.54 419.58,413.68 C418.85,408.82 417.02,406.92 413.86,407.75 C411.82,408.28 411.72,408.65 411.99,414.50 C412.28,420.62 414.60,422.47 418.45,419.66 ZM 417.26 395.35 C416.91,389.90 416.39,389.00 413.59,389.00 C410.42,389.00 409.58,390.44 409.85,395.45 C410.13,400.53 412.42,402.64 415.44,400.59 C417.01,399.52 417.44,398.28 417.26,395.35 ZM 414.81 382.14 C415.76,381.54 415.93,379.92 415.42,376.14 C414.85,371.81 414.35,370.88 412.36,370.37 C407.67,369.20 406.12,373.85 408.55,381.75 C408.99,383.16 412.82,383.40 414.81,382.14 ZM 412.34 362.52 C413.36,361.49 413.67,359.74 413.33,356.77 C412.57,350.18 412.34,349.84 408.76,350.19 L 405.50 350.50 L 405.62 356.36 C405.74,362.06 406.75,363.95 409.68,363.98 C410.33,363.99 411.52,363.33 412.34,362.52 ZM 409.81 343.14 C411.79,341.89 410.97,333.00 408.75,331.61 C405.89,329.81 403.55,332.05 403.19,336.93 C402.75,342.88 405.76,345.71 409.81,343.14 ZM 660.50 436.01 C652.85,434.43 648.01,431.81 643.51,426.80 C638.09,420.77 636.48,415.90 636.62,406.00 C636.80,394.02 641.46,385.83 651.18,380.45 C655.90,377.83 657.46,377.50 665.00,377.50 C672.27,377.50 674.32,377.90 679.15,380.27 C687.92,384.58 692.61,392.11 693.69,403.61 C694.10,408.00 693.90,409.94 692.99,410.51 C692.29,410.94 682.71,411.45 671.70,411.64 C660.69,411.83 651.49,412.17 651.27,412.40 C651.04,412.63 651.58,414.23 652.47,415.95 C656.70,424.12 670.58,426.49 679.33,420.55 L 682.79 418.20 L 686.43 421.93 C690.66,426.26 690.46,427.74 685.18,431.31 C678.84,435.58 668.21,437.61 660.50,436.01 ZM 679.25 401.41 C680.35,400.32 677.91,395.29 674.89,392.39 C672.21,389.82 671.16,389.50 665.51,389.50 C660.12,389.50 658.76,389.88 656.49,392.00 C653.76,394.54 651.00,399.05 651.00,400.95 C651.00,402.06 678.16,402.51 679.25,401.41 ZM 785.50 436.02 C779.64,435.08 775.50,432.54 772.85,428.27 C770.67,424.77 770.48,423.28 770.15,407.30 L 769.80 390.11 L 765.65 389.80 L 761.50 389.50 L 761.50 384.00 L 761.50 378.50 L 765.75 378.19 L 770.00 377.89 L 770.00 371.42 C770.00,365.32 770.15,364.89 772.69,363.93 C774.17,363.37 777.43,363.04 779.94,363.20 L 784.50 363.50 L 784.79 370.75 L 785.09 378.00 L 792.54 378.00 L 800.00 378.00 L 800.00 384.00 L 800.00 390.00 L 792.00 390.00 L 784.00 390.00 L 784.01 401.75 C784.03,417.13 784.67,420.74 787.74,422.75 C789.83,424.12 790.68,424.17 793.35,423.10 C799.51,420.62 799.57,420.63 800.82,424.80 C802.75,431.24 802.38,432.95 798.75,434.42 C794.13,436.28 790.11,436.77 785.50,436.02 ZM 899.14 435.51 C893.97,433.89 890.58,430.95 887.65,425.50 C885.64,421.76 885.50,420.10 885.50,400.00 L 885.50 378.50 L 892.50 378.50 L 899.50 378.50 L 900.00 398.60 C900.37,413.46 900.85,419.12 901.86,420.33 C905.09,424.22 914.88,424.23 919.18,420.34 C923.81,416.14 924.48,413.32 925.00,395.50 L 925.50 378.50 L 932.25 378.20 L 939.00 377.91 L 939.00 406.50 L 939.00 435.09 L 932.25 434.80 L 925.50 434.50 L 925.51 431.25 C925.51,429.46 925.44,428.00 925.34,428.00 C925.24,428.00 923.84,429.31 922.24,430.91 C919.27,433.88 910.74,437.05 906.07,436.93 C904.66,436.90 901.54,436.25 899.14,435.51 ZM 974.20 435.15 C971.28,434.12 967.60,432.03 966.02,430.52 L 963.14 427.76 L 962.82 431.13 L 962.50 434.50 L 955.74 434.80 L 948.98 435.09 L 949.24 395.30 L 949.50 355.50 L 956.50 355.50 L 963.50 355.50 L 963.78 369.85 L 964.06 384.19 L 967.28 381.79 C972.69,377.74 976.48,376.69 983.78,377.22 C991.97,377.81 997.53,380.46 1002.34,386.08 C1007.00,391.53 1009.00,397.70 1009.00,406.64 C1009.00,416.18 1006.37,423.25 1000.76,428.74 C993.24,436.10 983.49,438.45 974.20,435.15 ZM 988.10 420.73 C994.21,416.64 996.35,405.53 992.48,398.00 C991.77,396.62 989.99,394.38 988.51,393.00 C986.20,390.84 984.91,390.50 979.00,390.50 C973.09,390.50 971.80,390.84 969.49,393.00 C965.54,396.69 964.00,400.30 964.00,405.89 C964.00,413.66 967.27,419.88 972.50,422.05 C976.67,423.77 984.55,423.10 988.10,420.73 ZM 523.67 434.33 C522.50,433.17 522.88,360.19 524.06,359.46 C525.70,358.45 572.18,358.78 573.21,359.81 C573.71,360.31 573.98,362.92 573.81,365.61 L 573.50 370.50 L 555.75 370.77 L 538.00 371.05 L 538.00 380.50 L 538.00 389.95 L 553.75 390.22 L 569.50 390.50 L 569.50 396.50 L 569.50 402.50 L 553.75 402.78 L 538.00 403.05 L 538.00 412.50 L 538.00 421.95 L 555.75 422.23 L 573.50 422.50 L 573.80 428.75 L 574.10 435.00 L 549.21 435.00 C535.53,435.00 524.03,434.70 523.67,434.33 ZM 587.19 407.29 C581.02,392.00 575.98,379.16 575.99,378.75 C575.99,378.34 579.14,378.00 582.97,378.00 C591.28,378.00 589.87,376.01 599.08,400.74 C602.61,410.22 605.72,417.98 606.00,417.97 C606.28,417.97 608.92,411.33 611.88,403.23 C614.84,395.13 618.31,386.12 619.59,383.20 L 621.93 377.91 L 628.72 378.20 C634.04,378.44 635.46,378.82 635.33,380.00 C635.24,380.83 631.28,390.95 626.53,402.50 C621.77,414.05 616.90,425.98 615.69,429.00 L 613.50 434.50 L 605.95 434.79 L 598.40 435.08 L 587.19 407.29 ZM 701.47 433.78 C701.19,433.06 701.09,420.33 701.23,405.49 L 701.50 378.50 L 708.00 378.50 L 714.50 378.50 L 714.81 381.75 L 715.13 385.00 L 718.37 382.53 C727.92,375.24 741.44,375.06 749.46,382.10 C755.55,387.45 756.50,391.81 756.50,414.50 L 756.50 434.50 L 749.50 434.50 L 742.50 434.50 L 742.00 415.17 L 741.50 395.83 L 738.23 392.92 C735.55,390.52 734.08,390.00 729.95,390.00 C725.48,390.00 724.45,390.44 720.71,393.93 L 716.50 397.85 L 716.00 416.18 L 715.50 434.50 L 708.74 434.80 C703.86,435.01 701.83,434.73 701.47,433.78 ZM 813.00 397.15 C813.00,354.48 812.27,358.00 821.11,358.00 C827.66,358.00 827.82,358.46 827.93,378.25 L 828.00 390.00 L 844.00 390.00 L 860.00 390.00 L 860.00 375.20 C860.00,365.02 860.37,360.03 861.20,359.20 C862.45,357.95 870.67,357.55 873.42,358.61 C874.82,359.15 875.00,363.48 875.00,397.11 L 875.00 435.00 L 867.50 435.00 L 860.00 435.00 L 860.00 419.00 L 860.00 403.00 L 844.03 403.00 L 828.05 403.00 L 827.78 418.75 L 827.50 434.50 L 820.25 434.79 L 813.00 435.09 L 813.00 397.15 ZM 244.16 355.00 C244.16,353.62 244.38,353.06 244.66,353.75 C244.94,354.44 244.94,355.56 244.66,356.25 C244.38,356.94 244.16,356.38 244.16,355.00 ZM 245.00 332.61 C245.00,332.39 245.70,331.95 246.55,331.62 C247.44,331.28 247.84,331.44 247.49,332.01 C246.91,332.96 245.00,333.42 245.00,332.61 ZM 268.76 328.29 C270.01,328.05 271.81,328.06 272.76,328.31 C273.72,328.56 272.70,328.76 270.50,328.75 C268.30,328.74 267.52,328.53 268.76,328.29 ZM 338.50 402.59 C327.37,397.64 326.68,382.83 337.32,377.33 C342.96,374.42 351.77,378.47 354.47,385.22 C357.34,392.39 354.35,399.70 347.36,402.62 C343.35,404.30 342.34,404.29 338.50,402.59 Z" fill="rgba(0,0,0,1)"/>
</g>
</svg>